<svg width="2506" height="731" viewBox="0 0 2506 731" fill="none" xmlns="http://www.w3.org/2000/svg">
<path fill-rule="evenodd" clip-rule="evenodd" d="M82.0855 351.353C101.239 180.364 62.3415 128.315 31.797 87.444L31.7969 87.4438C14.5699 64.3925 0 44.8965 0 9.62276C36.8495 38.8131 71.2841 29.3912 113.451 17.8536L113.451 17.8535C167.32 3.11362 233.809 -15.0791 334.073 39.3762C363.195 55.1929 391.249 36.0986 364.721 16.2351C363.721 15.486 362.714 14.7366 361.702 13.9838L361.461 13.8046L361.46 13.8043C355.678 9.50401 349.74 5.08758 343.989 0C499.025 7.29971 647.574 134.234 700.71 290.406C685.441 282.469 668.305 280.4 653.32 280.4C651.328 280.4 649.34 280.428 647.359 280.485L560.206 129.53H238.056L77.0067 408.479L293.365 213.121L560.206 129.53L585.142 226.148C581.68 225.745 578.395 225.6 575.4 225.6H571.174L550.763 146.517L300.163 225.021L96.9569 408.504L300.411 592.233L550.765 670.498L578.526 563.067C582.646 564.878 586.858 566.429 591.148 567.734L560.206 687.477L293.616 604.136L76.9887 408.51L76.9815 408.523L76.9815 408.504L76.9805 408.503L76.9815 408.502C77.0021 388.998 78.7559 369.9 82.0973 351.354L82.0855 351.353ZM626.229 573.16L560.206 687.517H238.056L76.9815 408.524L76.9813 408.85C76.9813 586.769 221.213 731 399.131 731C522.123 731 629.018 662.076 683.296 560.745C682.916 560.931 682.535 561.115 682.153 561.297L681.969 561.385L681.784 561.471C665.327 569.123 647.863 573.2 629.72 573.2C628.554 573.2 627.39 573.187 626.229 573.16ZM703.417 514.903C702.335 513.388 701.361 511.807 700.495 510.161C698.962 507.245 697.77 504.125 696.92 500.8C692.657 505.537 688.183 509.774 683.5 513.511C677.635 518.19 671.441 522.087 664.92 525.2C664.481 525.404 664.041 525.604 663.602 525.801C659.419 527.668 655.202 529.182 650.95 530.342L683.882 473.302C687.27 472.738 690.152 471.37 692.52 469.2C694.01 467.835 695.5 466.035 696.99 463.802C697.288 463.355 697.586 462.891 697.884 462.409L697.89 462.4C699.3 460.122 700.71 457.455 702.12 454.4L710.238 427.652L721.281 408.524C721.282 408.596 721.281 408.668 721.281 408.741L721.281 408.85C721.281 409.258 721.281 409.666 721.279 410.074L721.279 410.117C721.28 410.377 721.281 410.637 721.281 410.898V411.332L721.272 411.331C720.999 447.595 714.733 482.432 703.417 514.903ZM714.536 342.233C714.359 342.684 714.22 343.14 714.12 343.6C713.32 346.267 713.45 348.4 714.52 350C714.976 350.688 715.581 351.425 716.335 352.212C715.781 348.878 715.181 345.551 714.536 342.233ZM720.878 392.59C721.141 397.869 721.276 403.181 721.281 408.524L717.847 402.577L720.878 392.59ZM696.69 365.93C696.76 365.624 696.829 365.317 696.894 365.009C696.953 364.734 697.01 364.458 697.064 364.181C697.249 363.245 697.41 362.302 697.546 361.351L697.563 361.234C697.934 358.609 698.12 355.931 698.12 353.2C698.12 348.108 697.211 343.554 695.392 339.539C695.11 338.916 694.806 338.306 694.48 337.709C692.727 334.497 690.34 331.661 687.32 329.2C684.917 327.242 682.052 325.61 678.727 324.306C676.491 323.428 674.047 322.699 671.395 322.117L696.69 365.93ZM610.928 326.057L632.25 408.671L601.169 528.952C596.79 527.51 592.648 525.7 588.744 523.523L618.423 408.669L598.153 330.133C600.454 329.263 602.976 328.418 605.72 327.6C605.913 327.539 606.107 327.478 606.3 327.418C607.492 327.047 608.688 326.69 609.888 326.349C610.234 326.25 610.581 326.153 610.928 326.057ZM592.198 307.058L595 297.6C595.206 296.879 595.399 296.174 595.578 295.484C595.668 295.139 595.754 294.798 595.837 294.461C596.372 292.291 596.77 290.281 597.03 288.431C597.277 286.676 597.4 285.066 597.4 283.6C597.4 273.432 592.137 267.572 581.606 266.02L592.198 307.058Z" fill="#06CCF8"/>
<path d="M575.4 265.6C590.07 265.6 597.4 271.6 597.4 283.6C597.4 287.333 596.6 292 595 297.6L585.4 330C582.47 339.867 578.87 346.8 574.6 350.8C570.33 354.8 564.2 356.8 556.2 356.8C549.53 356.8 544.33 355.067 540.6 351.6C537.13 348.133 533.8 342.667 530.6 335.2L523.8 318.8C521.67 313.733 519.4 310.267 517 308.4C514.6 306.533 510.87 305.6 505.8 305.6H496.6L445.8 484.4C445 487.867 444.6 490.933 444.6 493.6C444.6 496.8 445 499.467 445.8 501.6C446.87 503.733 448.33 506 450.2 508.4C452.6 512.133 453.8 515.2 453.8 517.6C453.8 518.133 453.53 519.467 453 521.6C451.67 525.067 449 527.6 445 529.2C441.27 530.8 435.8 531.6 428.6 531.6H334.6C329 531.6 324.6 530.667 321.4 528.8C318.467 526.933 317 524.267 317 520.8C317 519.2 317.4 517.6 318.2 516C319.267 513.6 320.467 511.867 321.8 510.8C323.4 509.467 325.667 507.867 328.6 506C332.6 503.6 335.933 500.933 338.6 498C341.267 495.067 343.533 490.533 345.4 484.4L395.8 305.6H386.6C380.733 305.6 375.933 306.533 372.2 308.4C368.467 310.267 364.467 313.733 360.2 318.8L347 335.2C340.867 342.4 334.867 347.867 329 351.6C323.4 355.067 317.267 356.8 310.6 356.8C304.467 356.8 299.667 355.2 296.2 352C292.733 348.8 291 344.4 291 338.8C291 336.133 291.4 333.2 292.2 330L302.6 293.6C304.733 286.133 307.133 280.533 309.8 276.8C312.467 272.8 316.2 270 321 268.4C326.067 266.533 333.133 265.6 342.2 265.6H575.4ZM796.12 476.8C795.58 478.933 795.32 480.533 795.32 481.6C795.32 483.467 795.72 484.933 796.52 486C797.58 487.067 798.92 487.6 800.52 487.6C803.72 487.6 806.38 486.267 808.52 483.6C810.92 480.667 812.52 479.2 813.32 479.2C814.65 479.2 815.72 480.133 816.52 482C817.58 483.6 818.12 485.6 818.12 488C818.38 495.467 815.72 502.933 810.12 510.4C804.52 517.6 796.65 523.6 786.52 528.4C776.38 533.2 765.05 535.6 752.52 535.6C736.78 535.6 724.25 532.4 714.92 526C705.58 519.6 699.58 511.2 696.92 500.8C687.32 511.467 676.65 519.6 664.92 525.2C653.45 530.533 641.72 533.2 629.72 533.2C611.05 533.2 595.32 528.667 582.52 519.6C569.98 510.267 563.72 497.333 563.72 480.8C563.72 473.333 565.05 465.6 567.72 457.6L593.32 374C594.12 371.6 594.52 369.6 594.52 368C594.52 365.067 593.85 362.8 592.52 361.2C591.18 359.333 589.18 357.467 586.52 355.6C583.85 353.467 581.98 351.6 580.92 350C579.85 348.4 579.72 346.267 580.52 343.6C582.12 337.467 590.52 332.133 605.72 327.6C620.92 322.8 636.78 320.4 653.32 320.4C668.78 320.4 680.12 323.333 687.32 329.2C694.52 335.067 698.12 343.067 698.12 353.2C698.12 359.333 697.18 365.2 695.32 370.8L670.12 454C669.05 456.933 668.52 459.733 668.52 462.4C668.52 466.133 669.58 468.933 671.72 470.8C673.85 472.667 676.65 473.6 680.12 473.6C685.18 473.6 689.32 472.133 692.52 469.2C695.72 466.267 698.92 461.333 702.12 454.4L726.52 374C727.32 371.6 727.72 369.6 727.72 368C727.72 365.067 727.05 362.8 725.72 361.2C724.38 359.333 722.52 357.467 720.12 355.6C717.45 353.467 715.58 351.6 714.52 350C713.45 348.4 713.32 346.267 714.12 343.6C715.45 337.467 723.72 332.133 738.92 327.6C754.12 322.8 769.98 320.4 786.52 320.4C801.98 320.4 813.32 323.333 820.52 329.2C827.98 335.067 831.72 342.933 831.72 352.8C831.72 357.867 830.65 363.867 828.52 370.8L796.12 476.8ZM1029.13 320.4C1044.07 320.4 1055.93 324.933 1064.73 334C1073.8 343.067 1078.33 354.267 1078.33 367.6C1078.33 372.667 1077.8 377.333 1076.73 381.6C1074.07 392.533 1069 400.933 1061.53 406.8C1054.07 412.667 1045.13 415.6 1034.73 415.6C1024.6 415.6 1016.87 413.2 1011.53 408.4C1006.47 403.6 1001.93 397.2 997.93 389.2C995.8 384.667 993.8 381.333 991.93 379.2C990.07 377.067 987.93 376 985.53 376C982.87 376 980.47 377.067 978.33 379.2C976.47 381.333 974.73 385.067 973.13 390.4L942.33 490.4C941.8 491.733 941.53 493.733 941.53 496.4C941.53 499.867 942.47 502.8 944.33 505.2C946.47 507.333 949.27 509.467 952.73 511.6C955.93 513.733 958.07 515.467 959.13 516.8C960.2 518.133 960.6 519.867 960.33 522C959.8 525.467 957.8 528 954.33 529.6C951.13 531.2 945.53 532 937.53 532H835.13C828.2 532 823.27 530.933 820.33 528.8C817.13 526.4 815.93 523.333 816.73 519.6C817.8 516.4 820.6 513.6 825.13 511.2C829.13 509.067 832.47 506.533 835.13 503.6C837.8 500.667 840.07 496 841.93 489.6L877.53 374C878.07 372.667 878.33 370.8 878.33 368.4C878.33 365.467 877.67 363.2 876.33 361.6C875.27 360 873.4 358 870.73 355.6C868.07 353.467 866.2 351.6 865.13 350C864.07 348.4 863.93 346.267 864.73 343.6C866.33 337.467 874.73 332.133 889.93 327.6C905.13 322.8 921 320.4 937.53 320.4C948.47 320.4 957.53 322.933 964.73 328C971.93 332.8 976.6 339.733 978.73 348.8C991.53 329.867 1008.33 320.4 1029.13 320.4ZM1264.47 318.8C1284.2 318.8 1299.94 325.867 1311.67 340C1323.67 354.133 1329.67 372.8 1329.67 396C1329.67 408 1328.2 419.733 1325.27 431.2C1316.74 465.6 1302.07 491.6 1281.27 509.2C1260.74 526.8 1237 535.6 1210.07 535.6C1194.87 535.6 1181.67 533.067 1170.47 528C1159.54 522.667 1150.74 515.2 1144.07 505.6L1129.67 518C1124.07 522.8 1118.6 526.4 1113.27 528.8C1107.94 530.933 1101.8 532 1094.87 532H1077.27C1070.6 532 1065.4 530.667 1061.67 528C1058.2 525.067 1056.47 520.933 1056.47 515.6C1056.47 513.2 1056.87 510.4 1057.67 507.2L1124.47 290C1125.27 287.6 1125.67 285.6 1125.67 284C1125.67 279.467 1122.87 275.2 1117.27 271.2C1114.6 268.8 1112.74 266.933 1111.67 265.6C1110.6 264 1110.47 262 1111.27 259.6C1113.14 253.467 1121.54 248.133 1136.47 243.6C1151.67 238.8 1167.54 236.4 1184.07 236.4C1199.54 236.4 1210.87 239.467 1218.07 245.6C1225.54 251.467 1229.27 259.467 1229.27 269.6C1229.27 275.2 1228.34 280.8 1226.47 286.4L1209.67 340.8C1225.14 326.133 1243.4 318.8 1264.47 318.8ZM1219.27 428.8C1224.6 410.667 1227.27 396 1227.27 384.8C1227.27 372.533 1223.67 366.4 1216.47 366.4C1210.07 366.4 1204.07 369.733 1198.47 376.4L1172.47 461.2L1170.07 468.8C1168.74 472.8 1168.07 476.933 1168.07 481.2C1168.07 490.533 1172.47 495.2 1181.27 495.2C1187.67 495.2 1193.8 490.533 1199.67 481.2C1205.54 471.867 1212.07 454.4 1219.27 428.8ZM1485.97 320.4C1522.24 320.4 1548.91 327.733 1565.97 342.4C1583.31 357.067 1591.97 376.267 1591.97 400C1591.97 408 1590.91 416.933 1588.77 426.8C1583.71 448.667 1574.24 467.867 1560.37 484.4C1546.51 500.667 1529.44 513.333 1509.17 522.4C1489.17 531.2 1467.44 535.6 1443.97 535.6C1406.91 535.6 1379.44 528.267 1361.57 513.6C1343.97 498.667 1335.17 478.933 1335.17 454.4C1335.17 446.133 1336.24 436.933 1338.37 426.8C1343.44 406 1353.04 387.6 1367.17 371.6C1381.57 355.333 1399.04 342.8 1419.57 334C1440.37 324.933 1462.51 320.4 1485.97 320.4ZM1484.77 356C1479.17 356 1473.17 361.067 1466.77 371.2C1460.64 381.067 1453.31 399.867 1444.77 427.6C1436.24 455.333 1431.97 474.8 1431.97 486C1431.97 491.867 1432.91 495.867 1434.77 498C1436.64 499.867 1439.17 500.8 1442.37 500.8C1447.97 501.333 1453.71 496.533 1459.57 486.4C1465.71 476.267 1473.31 456.533 1482.37 427.2C1490.64 401.333 1494.77 382.533 1494.77 370.8C1494.77 365.2 1493.84 361.333 1491.97 359.2C1490.37 357.067 1487.97 356 1484.77 356ZM1618.45 249.34L1673.47 250.18H1721.77C1757.61 250.18 1784.49 257.18 1802.41 271.18C1820.33 284.9 1829.29 301.84 1829.29 322C1829.29 336.84 1823.55 350.14 1812.07 361.9C1800.59 373.38 1786.17 380.8 1768.81 384.16V385.84C1794.01 390.32 1813.89 399.28 1828.45 412.72C1843.01 426.16 1850.29 441.42 1850.29 458.5C1850.29 478.94 1839.51 496.3 1817.95 510.58C1796.39 524.86 1767.27 532 1730.59 532H1689.85L1618.45 532.84C1616.21 532.84 1615.09 530.46 1615.09 525.7C1615.09 520.94 1616.21 518.56 1618.45 518.56H1636.51C1643.51 518.56 1648.13 517.3 1650.37 514.78C1652.61 511.98 1653.73 506.8 1653.73 499.24V300.58C1653.73 275.94 1650.79 263.62 1644.91 263.62H1618.45C1616.21 263.62 1615.09 261.24 1615.09 256.48C1615.09 251.72 1616.21 249.34 1618.45 249.34ZM1696.99 478.24C1696.99 502.88 1700.07 515.2 1706.23 515.2H1727.65C1750.89 515.2 1768.67 510.02 1780.99 499.66C1793.31 489.3 1799.47 475.58 1799.47 458.5C1799.47 440.02 1793.03 425.32 1780.15 414.4C1765.59 401.8 1737.87 394.66 1696.99 392.98V478.24ZM1696.99 286.3V376.18C1703.71 377.3 1711.13 377.86 1719.25 377.86C1739.69 377.86 1755.51 372.82 1766.71 362.74C1778.19 352.38 1783.93 339.5 1783.93 324.1C1783.93 308.7 1777.77 295.4 1765.45 284.2C1753.13 272.72 1734.37 266.98 1709.17 266.98C1701.05 266.98 1696.99 273.42 1696.99 286.3ZM1893.58 532L1860.4 532.84C1858.44 532.84 1857.46 531.02 1857.46 527.38C1857.46 523.74 1858.44 521.92 1860.4 521.92H1873.84C1876.92 521.92 1879.16 520.66 1880.56 518.14C1887 507.5 1899.88 479.22 1919.2 433.3C1938.52 387.1 1952.38 352.1 1960.78 328.3C1961.9 325.78 1964.56 324.52 1968.76 324.52C1973.24 324.52 1976.04 325.92 1977.16 328.72C1980.52 342.72 1990.32 369.18 2006.56 408.1C2023.08 447.02 2037.5 479.5 2049.82 505.54C2053.18 512.26 2056.26 516.6 2059.06 518.56C2061.86 520.52 2066.2 521.5 2072.08 521.5C2073.76 521.5 2074.6 523.46 2074.6 527.38C2074.6 531.02 2073.9 532.84 2072.5 532.84L2032.18 532L1986.82 532.84C1985.14 532.84 1984.3 531.02 1984.3 527.38C1984.3 523.74 1985.14 521.92 1986.82 521.92H2006.98C2010.06 521.92 2011.6 520.66 2011.6 518.14C2011.6 517.86 2003.76 496.3 1988.08 453.46H1929.7C1915.98 487.34 1909.12 507.22 1909.12 513.1C1909.12 518.7 1910.8 521.5 1914.16 521.5H1931.38C1933.62 521.5 1934.74 523.46 1934.74 527.38C1934.74 531.02 1933.9 532.84 1932.22 532.84L1893.58 532ZM1982.62 439.18C1981.78 436.66 1974.5 415.38 1960.78 375.34H1959.52C1952.8 394.66 1944.82 415.94 1935.58 439.18H1982.62ZM2139.47 532L2094.53 532.84C2092.57 532.84 2091.59 530.74 2091.59 526.54C2091.59 522.34 2092.29 520.24 2093.69 520.24H2114.27C2117.63 520.24 2119.31 517.86 2119.31 513.1V375.34C2119.31 353.22 2116.23 342.16 2110.07 342.16H2095.37C2092.29 342.16 2090.75 340.06 2090.75 335.86C2090.75 331.38 2092.01 329.14 2094.53 329.14C2119.45 329.7 2144.93 329.98 2170.97 329.98C2197.01 329.98 2217.17 335.58 2231.45 346.78C2246.01 357.7 2253.29 371.28 2253.29 387.52C2253.29 403.48 2247.55 416.36 2236.07 426.16C2224.59 435.96 2210.73 441.56 2194.49 442.96C2202.61 448.56 2213.11 459.76 2225.99 476.56C2230.75 483 2238.17 490.42 2248.25 498.82C2258.33 506.94 2269.67 514.22 2282.27 520.66C2276.67 531.86 2268.13 537.46 2256.65 537.46C2245.17 537.46 2235.09 533.26 2226.41 524.86C2217.73 516.46 2211.01 507.22 2206.25 497.14C2201.49 486.78 2196.17 476.14 2190.29 465.22C2184.69 454.3 2179.37 447.16 2174.33 443.8L2155.01 442.54V491.26C2155.01 509.74 2157.81 518.98 2163.41 518.98H2181.05C2183.29 518.98 2184.41 521.22 2184.41 525.7C2184.41 529.9 2183.71 532 2182.31 532H2139.47ZM2163.41 342.58C2157.81 342.58 2155.01 347.2 2155.01 356.44V426.16C2158.93 427 2162.85 427.42 2166.77 427.42C2179.37 427.42 2190.29 423.92 2199.53 416.92C2208.77 409.92 2213.39 400.4 2213.39 388.36C2213.39 376.32 2209.19 365.68 2200.79 356.44C2192.67 347.2 2180.21 342.58 2163.41 342.58ZM2343.31 532L2298.37 532.84C2296.41 532.84 2295.43 530.74 2295.43 526.54C2295.43 522.34 2296.13 520.24 2297.53 520.24H2318.11C2321.47 520.24 2323.15 517.86 2323.15 513.1V375.34C2323.15 353.22 2320.07 342.16 2313.91 342.16H2299.21C2296.13 342.16 2294.59 340.06 2294.59 335.86C2294.59 331.38 2295.85 329.14 2298.37 329.14C2312.93 329.7 2327.63 329.98 2342.47 329.98H2383.21C2419.61 329.98 2449.01 339.92 2471.41 359.8C2494.09 379.4 2505.43 403.9 2505.43 433.3C2505.43 462.7 2494.37 486.5 2472.25 504.7C2450.41 522.9 2422.69 532 2389.09 532H2343.31ZM2368.93 342.58C2362.21 342.58 2358.85 346.64 2358.85 354.76V485.8C2358.85 507.64 2361.79 518.56 2367.67 518.56H2382.79C2408.55 518.56 2428.29 511.28 2442.01 496.72C2456.01 482.16 2463.01 461.86 2463.01 435.82C2463.01 409.5 2455.45 387.66 2440.33 370.3C2425.21 352.94 2401.83 343.7 2370.19 342.58C2369.63 342.58 2369.21 342.58 2368.93 342.58Z" fill="#FFC700"/>
</svg>
