<svg width="407.81mm" height="420.54mm" version="1.1" viewBox="0 0 407.81021 420.54382" xmlns="http://www.w3.org/2000/svg">
 <g transform="translate(327.88 208.09)">
  <path d="m-127.79-208.09c-43.204 0-83.21 13.694-115.91 36.977a131.54 131.54 0 0 1 11.441 -6.4792 131.54 131.54 0 0 1 58.951 -13.985 131.54 131.54 0 0 1 131.54 131.54 131.54 131.54 0 0 1 -3.4453 29.152 102.03 104.1 0 0 0 -25.761 -4.0111c-1.3184-4.2882-3.0079-8.4853-5.0746-12.539-6.2522-17.222-1.8039-39.784 13.243-53.599-4.4341-3.1533-9.2754-5.6908-14.391-7.5427v-3e-3c-5.4656-1.554-11.553-2.3255-17.896-2.3513-24.881-0.10117-53.682 11.278-64.226 31.949 2.8544-9.7838 3.4664-14.333 12.805-21.52-28.85 3.4593-54.335 21.233-66.187 44.726-0.14338 0.28421-0.27821 0.56255-0.41807 0.84285l15.625 4.6891 19.54 19.476-45.698-27.326 6.473 12.533c-0.69998 2.0506-1.4044 4.4813-2.0448 6.8998-12.53 44.435 9.1458 78.484 38.813 96.146 3.4525-18.492 11.96-35.47 24.344-49.18a102.03 104.1 0 0 0 -19.375 60.812 102.03 104.1 0 0 0 23.994 67.065 102.03 104.1 0 0 0 6.4316 7.0445 101.03 101.03 0 0 1 -6.7102 -6.0632 101.03 101.03 0 0 1 -29.488 -66.062 131.54 131.54 0 0 1 -123.63 -131.14 131.54 131.54 0 0 1 30.553 -84.239c-33.248 35.726-53.586 83.629-53.586 136.28 0 110.51 89.584 200.09 200.09 200.09 15.646 0 30.989-2.0049 45.801-5.7568 0.83217 1.4713 1.7264 2.715 2.6882 3.6809 25.644 25.753 43.172 26.662 72.638 16.098-6.6362-0.2852-19.784-6.081-24.546-10.51-0.15872-0.14764-0.308-0.29385-0.44751-0.43823-0.13954-0.14436-0.26937-0.28678-0.38862-0.42736 20.985 11.774 53.332 13.513 79.822-10.977-6.1055 2.1981-14.144 1.4646-19.892-1.7833 32.658 3.9504 46.479-20.456 48.412-44.115-3.7363 6.2576-9.7012 10.072-19.613 10.531 27.253-9.2081 30.711-36.09 9.4749-60.296-7.7771 11.82-16.947 14.223-26.573 12.397 24.115-34.506 38.535-75.856 38.535-118.81-4.2333 7.0887-6.9562 11.329-14.384 13.65 15.591-28.371-1.8336-82.475-6.8962-94.444-2.2696 4.9751-3.8374 12.019-9.6418 15.015 5.1563-26.36-17.717-59.328-34.627-75.489-0.82044 5.5406 1.4247 13.815-3.6075 16.726-2.7872-21.41-48.489-50.263-60.458-55.326 2.3182 3.9332 4.041 7.6755 3.1864 11.095-0.19527-0.22355-0.40066-0.44524-0.61548-0.66506-13.533-13.849-65.27-20.334-78.868-20.334zm-92.163 172.35 8.3225 0.93898 33.011 3.7253-22.042 18.025z" style="fill:#3a6982;paint-order:normal;stroke-miterlimit:0;stroke-width:0"/>
 </g>
</svg>
