<svg version="1" xmlns="http://www.w3.org/2000/svg" width="682.667" height="682.667" viewBox="0 0 512.000000 512.000000"><path d="M143.7.6c-.2.3-2.2.7-4.3.9-14 1.4-21.7 2.8-23.7 4.5-.4.4.3 2.9 1.7 5.6 5.4 10.6 11.8 35.6 10 38.5-.2.4 0 1 .5 1.3 1.2.8.7 27.9-.7 38.1-1.2 8.5-3.8 18.4-5.3 20-.5.5-.9 1.9-.9 3.2 0 1.3-1.6 5.6-3.5 9.6-1.9 3.9-3.5 7.8-3.5 8.4 0 .7-.4 1.3-.8 1.3-.5 0-1.8 2-3 4.4-2.6 5.1-9.9 15-14 18.9-.7.6-2.1 1.9-3 2.8-5.1 4.7-19.2 21.4-19.2 22.6 0 .5-1.3 2.3-3 4.1-1.6 1.8-3 4-3 4.8 0 .8-.4 1.4-.8 1.4-.5 0-1.5 1.2-2.3 2.7-.8 1.6-1.6 3-1.9 3.3-1.6 1.6-13 24.5-13 26.2 0 .7-.8 2.5-1.7 3.8-1 1.4-1.7 2.7-1.7 3 .1.3-.5 1.9-1.3 3.7-.7 1.8-1.3 3.8-1.3 4.6 0 .7-1.1 4.6-2.5 8.5-1.4 4-2.9 10-3.5 13.4-.5 3.5-1.1 7.4-1.4 8.8-2.5 11.4-3.1 18.4-3.1 35 0 13.7.8 24.2 2.2 30.5.2 1.1.9 4.7 1.4 8 .6 3.3 1.5 7.8 2 10s1.2 5.1 1.5 6.5c.3 1.3.9 2.9 1.3 3.5.5.5 1.2 3 1.6 5.5.4 2.4 1.1 5.1 1.5 6 2.8 5.3 4.8 9.9 5.4 12.4.4 1.7 1.6 4.2 2.7 5.7 1 1.5 1.9 3 1.9 3.5 0 1.4 5.4 11.4 6.2 11.4.4 0 .8.8.8 1.8s1.3 3.3 3 5.2c1.6 1.9 2.9 4.3 3 5.2 0 1 .4 1.8.9 1.8s2.6 2.5 4.6 5.5c2 3.1 5.4 7.4 7.6 9.7 2.1 2.2 4.1 4.9 4.4 5.9.4 1.1 1.1 1.9 1.6 1.9 1.3 0 3.3 2 4.2 4.2.3 1 1.3 1.8 2 1.8s2 1.1 2.7 2.5c.7 1.4 1.7 2.5 2.2 2.5.5 0 2.3 1.6 4.1 3.5 1.7 1.9 3.6 3.5 4 3.5.5 0 2.1 1.2 3.7 2.8 3.5 3.4 4.3 4.1 11.3 8.7 3.1 2.1 5.7 4.1 5.7 4.4 0 .3 2.3 1.7 5.1 3.1 2.8 1.3 5.3 3 5.6 3.7.3.7 1.1 1.3 1.7 1.3.7 0 6.3 2.5 12.4 5.5 6.2 3 12 5.5 13 5.5s2.2.4 2.8.9c1.3 1.2 12.1 5.1 15.3 5.5 1.4.2 4.6 1.1 7.1 1.9 5.9 2.1 11.2 3.2 20 4.1 2.5.3 6.5.8 9 1.3 5.5.9 36.6 1 43.5.1 4.6-.6 10.4-1.3 18-2.2 1.7-.2 3.7-.6 4.5-.9 2.5-1 15.3-4.5 19-5.2 1.9-.4 4-1.1 4.5-1.5.6-.5 1.3-.9 1.8-.9.4 0 2.3-.8 4.3-1.6s4.1-1.5 4.6-1.5c1.4 0 23.5-10.9 28.3-13.9 2.2-1.4 4.7-3.1 5.6-3.6 9.1-5.7 14.9-9.8 14.9-10.5 0-.5.8-1.1 1.8-1.4 1-.3 4.1-2.8 6.9-5.5 2.9-2.8 6-5.4 7-5.9s22.8-.8 48.4-.8l46.7.1-1.4-2.7c-.8-1.5-1.8-3-2.4-3.3-.5-.3-1-1.2-1-2 0-.7-1.6-3.7-3.5-6.6-1.9-3-3.5-5.9-3.5-6.6 0-.7-.4-1.3-.8-1.3-.5 0-1.9-2.1-3.2-4.8-1.2-2.6-2.8-5.4-3.5-6.2-.7-.8-2.5-4-4.1-7-1.6-3-3.5-6.1-4.1-6.8-.7-.7-1.3-2.2-1.3-3.2s-.6-2-1.2-2.3c-.7-.3-2.2-2.2-3.2-4.3-1.1-2.2-3.5-6.5-5.4-9.6-3.4-5.7-4.6-10.9-3.1-13.8 1.4-2.7 6.6-20.4 7.8-27 .7-3.6 1.5-7.4 1.7-8.5 2.8-13.7 3.4-22 3.6-52 .1-26.6-.2-31.1-3.4-44.5-1.1-4.7-2.2-10.1-2.5-12-.3-1.9-1.4-6-2.5-9s-2.7-7.8-3.5-10.5c-.8-2.8-2.3-6.7-3.4-8.8-1-2.2-1.9-4.5-1.9-5.3 0-1.6-1.8-5.1-3.7-7.2-.7-.7-1.3-1.8-1.3-2.4 0-1.3-3.2-8.1-4.1-8.8-.3-.3-1.8-2.8-3.2-5.6-1.4-2.7-3.3-5.6-4.1-6.3-.9-.8-1.6-2.2-1.6-3.2 0-1.1-.4-1.9-.9-1.9s-2.3-2.3-4-5c-1.7-2.8-4-5.8-5.1-6.7-1.1-1-2-2.2-2-2.8 0-.5-1.1-2.1-2.4-3.5-1.4-1.4-3.9-4.1-5.6-6-5.4-6.1-17-17.7-21.2-21.2-2.2-1.8-5-4.3-6.1-5.6-1.1-1.2-2.6-2.2-3.3-2.2-.7 0-1.7-.6-2.1-1.4-.7-1.2-13.9-10.6-14.9-10.6-.2 0-2.4-1.6-5-3.5-2.5-1.9-5.2-3.5-5.9-3.5-.7 0-2-.6-2.7-1.4-.8-.8-3.4-2.3-5.7-3.4l-4.3-2.1.6 2.2c5.1 17.2 5.5 64.1.7 80.4-.5 1.8-.7 3.3-.4 3.3.3 0 .1.6-.4 1.2-.9 1.2-2.9 8-3.7 12.3-.1 1.1-.8 3.1-1.3 4.5-.6 1.4-1.8 4.2-2.7 6.4-.9 2.1-1.6 4.6-1.6 5.6s-.7 2.3-1.5 3c-1.9 1.5-1.9.4-.1-4.6.7-2.2 1.6-6.8 1.9-10.4.4-3.6 1-8.1 1.3-10 .9-4.5.9-29.5.1-34-.4-1.9-1-6-1.3-9-.3-3-1-7.3-1.6-9.5-.6-2.2-1.2-4.5-1.4-5-1-4.8-5.1-16.9-7-20.7-1.3-2.6-2.4-5.2-2.4-5.7 0-.6-1.3-3.3-3-6.1-1.6-2.8-3-5.5-3-6.1 0-1-1-2.4-4.2-6-1-1-1.8-2.4-1.8-3 0-.6-1.2-2.6-2.7-4.5-1.6-1.8-3.7-4.5-4.8-6-2.1-2.9-9.7-11.5-13-14.9-4.6-4.6-16.3-14.5-17.3-14.5-.5 0-1.6-.7-2.3-1.6C246.9 25.5 215 9 209.7 9c-1.4 0-2.8-.4-3.1-.9-.5-.8-6.2-2.3-7-1.8-.1.1-.9-.3-1.7-1-1.3-1-4.5-1.7-13.4-2.8-1.6-.2-3-.4-3-.5 0-.9-37-2.2-37.8-1.4z"/></svg>