<svg version="1" xmlns="http://www.w3.org/2000/svg" width="798.667" height="798.667" viewBox="0 0 599.000000 599.000000"><path d="M168.9.4c-.2.2-3 .6-6.2 1-3.1.3-6.7.8-8 1.1-1.2.3-3.5.7-5.2 1-8.5 1.3-14.5 3-14.5 4 0 .6 1.1 3.3 2.4 6.1 2.5 5.2 8.1 21.1 9 25.4.3 1.4.8 3.6 1.1 5 .6 3 1.1 5.9 2.2 12.5 1 6 .9 37.1-.1 43.6-2.6 17.2-7.9 34.5-15.2 49.3-3.5 7-10.3 18.7-11.4 19.6-.3.3-1.9 2.3-3.6 4.4-1.6 2.2-6.2 7.4-10.3 11.5-9.5 9.8-19.5 21.7-25.5 30.6-2.7 3.8-5.5 7.8-6.4 8.7-.8 1-1.2 1.8-.9 1.8.3 0-.9 2.1-2.6 4.7-3.1 4.7-15.6 29.1-16.1 31.6-.2.7-.9 2.5-1.5 4.2-2.9 6.9-8.5 24.3-9.6 29.8-.3 1-.6 2.6-.9 3.5-.3.9-.8 3-1.1 4.7-.3 1.6-.8 3.9-1 5-.7 3.4-2.6 15.5-3.3 21.4-1.5 12.3-.7 48.8 1.3 59.2.3 1.3.7 3.9 1 5.9.3 2 .8 4.7 1 6 .3 1.4.7 3.6 1 5 .3 1.4 1.4 5.9 2.5 10 1.2 4.1 2.2 8.2 2.4 9 1 4.1 6.8 19.6 10.1 27.1 9.4 21.6 20.6 39.3 39 61.9 3.3 4 21.7 22.2 26.4 26 2.3 1.9 5.5 4.5 6.9 5.8 4.5 3.8 27.3 18.7 34.7 22.7 3.9 2 7.5 4 8 4.3.6.4 1.2.7 1.5.8.3 0 3.2 1.3 6.5 2.8 15.4 7.1 41.6 15.5 53.5 17.1 1.4.2 4.1.6 6 1 19 3.6 59.8 4.2 76 1 1.4-.3 3.9-.7 5.5-1 7.5-1.2 7.3-1.2 18.5-3.8 19.9-4.7 45.5-15.3 66.2-27.6 8.9-5.2 29.2-20.2 37-27.3l4.8-4.3 54.2.1c29.9 0 54.6-.1 55-.3.4-.2-.4-2.2-1.7-4.3-1.4-2.2-2.5-4.4-2.5-4.9s-.4-1.1-.8-1.3c-.4-.2-3.4-5-6.7-10.8-3.3-5.7-7.2-12.5-8.7-15-1.5-2.5-3.4-5.9-4.3-7.5-.9-1.7-2.1-3.9-2.8-5-.7-1.1-4.8-8.3-9.2-16-4.3-7.7-8.2-14.2-8.5-14.5-.3-.3-1.5-2.3-2.7-4.5l-2.2-4.1 2.4-5.7c1.3-3.2 2.4-6.1 2.4-6.5.1-.4.7-2.7 1.5-5.2 3.5-11.3 5.3-18.9 6.2-25.5.1-1.1.5-3.1.8-4.5 1.9-7.7 2.6-15.6 4.2-44.5 1.1-19.7.7-39.6-1-52-.8-5.2-2.6-15.9-3.1-18.5-.4-1.4-.8-3.6-1.1-5-.3-1.4-1.2-5.2-2.1-8.5-.8-3.3-1.7-6.8-1.9-7.9-.2-1-.8-2.4-1.5-3.2-.6-.8-.9-1.4-.5-1.4.5 0-5.2-16.9-7.3-21.5-13.6-29.4-20.9-41.6-38-63.3-8.8-11.2-13.7-16.7-21-23.6-2.4-2.2-5.8-5.5-7.5-7.1-8.2-7.9-22.9-19.4-35.6-27.7-8.5-5.6-25-14.8-26.4-14.8-.5 0-.5 1.2-.1 2.7 1.4 5.7 2.3 10.6 4.2 24.3 1.5 10.2.6 48.3-1.3 57.1-.3 1.3-.9 4.6-1.4 7.4-2.4 14-10.7 40-15.8 49.5l-1.4 2.5.7-3c.4-1.7.9-3.7 1.1-4.5 9.2-35.7 7.6-75.6-4.5-108.5-4.4-12.1-4.9-13.2-9.6-22.5-10.6-21-27.3-42.6-44-56.7-2.8-2.3-6-5.1-7.3-6.2-1.3-1.1-4.9-3.7-8-5.8-3.1-2.1-5.8-4.1-6-4.6-.2-.4-.9-.7-1.5-.7s-1.8-.7-2.7-1.5c-2.4-2.1-22.2-11.8-31.5-15.3-7.9-3-19.6-6.6-24.5-7.6-11.3-2.2-14.5-2.8-17.8-3.2-4.4-.6-38.8-1.4-39.3-1z"/></svg>